<svg width="17" height="16" viewBox="0 0 17 16" fill="none" xmlns="http://www.w3.org/2000/svg">
<path d="M8.5 15.4997C12.6421 15.4997 16 12.1424 16 8.00083C16 3.85932 12.6421 0.501953 8.5 0.501953C4.35786 0.501953 1 3.85932 1 8.00083C1 12.1424 4.35786 15.4997 8.5 15.4997Z" fill="#EBEBF0" stroke="#EBEBF0" stroke-linecap="round" stroke-linejoin="round"/>
<path d="M6.31738 5.7514C6.49371 5.25015 6.84175 4.82748 7.29985 4.55825C7.75795 4.28902 8.29655 4.19061 8.82027 4.28044C9.34398 4.37027 9.819 4.64255 10.1612 5.04905C10.5034 5.45555 10.6907 5.97005 10.6899 6.5014C10.6899 8.0014 8.43988 8.7514 8.43988 8.7514" stroke="#262626" stroke-linecap="round" stroke-linejoin="round"/>
<path d="M8.5 11.75H8.5075" stroke="#262626" stroke-linecap="round" stroke-linejoin="round"/>
</svg>
